<svg width="24" height="24" viewBox="0 0 24 24" fill="none" xmlns="http://www.w3.org/2000/svg">
  <!-- External: Clean box with escaping arrow -->
  <title>External Link</title>

  <!-- Box shadow -->
  <path d="M18 13 V19 A2 2 0 0 1 16 21 H5 A2 2 0 0 1 3 19 V8 A2 2 0 0 1 5 6 H11"
    stroke="currentColor" stroke-width="1.5" stroke-linecap="round" stroke-linejoin="round" opacity="0.2" transform="translate(0.3, 0.3)"/>

  <!-- Box -->
  <path d="M18 13 V19 A2 2 0 0 1 16 21 H5 A2 2 0 0 1 3 19 V8 A2 2 0 0 1 5 6 H11"
    stroke="currentColor" stroke-width="1.5" stroke-linecap="round" stroke-linejoin="round"/>

  <!-- Arrow -->
  <path d="M14 3 L20 3 L20 9" stroke="currentColor" stroke-width="2" stroke-linecap="round" stroke-linejoin="round"/>
  <line x1="10" y1="14" x2="20" y2="4" stroke="currentColor" stroke-width="2" stroke-linecap="round"/>
</svg>
