<svg width="24" height="24" viewBox="0 0 24 24" fill="none" xmlns="http://www.w3.org/2000/svg">
  <!-- File: Clean document -->
  <title>File</title>

  <!-- Shadow -->
  <path d="M14 3H6a2 2 0 0 0-2 2v14a2 2 0 0 0 2 2h12a2 2 0 0 0 2-2V9L14 3z"
    stroke="currentColor" stroke-width="1.5" stroke-linecap="round" stroke-linejoin="round" opacity="0.2" transform="translate(0.3, 0.3)"/>

  <!-- Main file -->
  <path d="M14 3H6a2 2 0 0 0-2 2v14a2 2 0 0 0 2 2h12a2 2 0 0 0 2-2V9L14 3z"
    stroke="currentColor" stroke-width="1.5" stroke-linecap="round" stroke-linejoin="round"/>

  <!-- Corner fold -->
  <path d="M14 3v6h6" stroke="currentColor" stroke-width="1.5" stroke-linecap="round" stroke-linejoin="round"/>

  <!-- Content lines -->
  <line x1="8" y1="13" x2="16" y2="13" stroke="currentColor" stroke-width="1.5" stroke-linecap="round"/>
  <line x1="8" y1="17" x2="14" y2="17" stroke="currentColor" stroke-width="1.5" stroke-linecap="round"/>
</svg>
