<svg width="24" height="24" viewBox="0 0 24 24" fill="none" xmlns="http://www.w3.org/2000/svg">
  <!-- Folder: Clean folder -->
  <title>Folder</title>

  <!-- Shadow -->
  <path d="M22 19a2 2 0 0 1-2 2H4a2 2 0 0 1-2-2V5a2 2 0 0 1 2-2h5l2 2h9a2 2 0 0 1 2 2z"
    stroke="currentColor" stroke-width="1.5" stroke-linecap="round" stroke-linejoin="round" opacity="0.2" transform="translate(0.3, 0.3)"/>

  <!-- Main folder -->
  <path d="M22 19a2 2 0 0 1-2 2H4a2 2 0 0 1-2-2V5a2 2 0 0 1 2-2h5l2 2h9a2 2 0 0 1 2 2z"
    stroke="currentColor" stroke-width="1.5" stroke-linecap="round" stroke-linejoin="round"/>
</svg>
