<svg width="24" height="24" viewBox="0 0 24 24" fill="none" xmlns="http://www.w3.org/2000/svg">
  <!-- Palette: Clean artist palette -->
  <title>Palette</title>

  <!-- Shadow -->
  <path d="M12 3C7.03 3 3 7.03 3 12c0 2.76 2.24 5 5 5h1.25c.69 0 1.25.56 1.25 1.25v.25c0 2.07 1.68 3.75 3.75 3.75 4.28 0 7.75-3.47 7.75-7.75C22 7.37 17.63 3 12 3z"
    stroke="currentColor" stroke-width="1.5" stroke-linecap="round" stroke-linejoin="round" opacity="0.2" transform="translate(0.3, 0.3)"/>

  <!-- Main palette -->
  <path d="M12 3C7.03 3 3 7.03 3 12c0 2.76 2.24 5 5 5h1.25c.69 0 1.25.56 1.25 1.25v.25c0 2.07 1.68 3.75 3.75 3.75 4.28 0 7.75-3.47 7.75-7.75C22 7.37 17.63 3 12 3z"
    stroke="currentColor" stroke-width="1.5" stroke-linecap="round" stroke-linejoin="round"/>

  <!-- Color dots -->
  <circle cx="8" cy="10" r="1.8" stroke="currentColor" stroke-width="1.5"/>
  <circle cx="8" cy="10" r="0.6" fill="currentColor"/>

  <circle cx="12" cy="8" r="1.8" stroke="currentColor" stroke-width="1.5"/>
  <circle cx="12" cy="8" r="0.6" fill="currentColor"/>

  <circle cx="16" cy="10" r="1.8" stroke="currentColor" stroke-width="1.5"/>
  <circle cx="16" cy="10" r="0.6" fill="currentColor"/>

  <circle cx="14" cy="14" r="1.8" stroke="currentColor" stroke-width="1.5"/>
  <circle cx="14" cy="14" r="0.6" fill="currentColor"/>
</svg>
