<svg width="24" height="24" viewBox="0 0 24 24" fill="none" xmlns="http://www.w3.org/2000/svg">
  <!-- Trash: Clean trash can -->
  <title>Trash</title>

  <!-- Bin shadow -->
  <path d="M4 7h16l-1.5 13a2 2 0 0 1-2 2H7.5a2 2 0 0 1-2-2L4 7z"
    stroke="currentColor" stroke-width="1.5" stroke-linecap="round" stroke-linejoin="round" opacity="0.2" transform="translate(0.3, 0.3)"/>

  <!-- Main bin -->
  <path d="M4 7h16l-1.5 13a2 2 0 0 1-2 2H7.5a2 2 0 0 1-2-2L4 7z"
    stroke="currentColor" stroke-width="1.5" stroke-linecap="round" stroke-linejoin="round"/>

  <!-- Lid -->
  <path d="M3 5h18" stroke="currentColor" stroke-width="2" stroke-linecap="round"/>

  <!-- Handle -->
  <path d="M9 5V3.5a1.5 1.5 0 0 1 1.5-1.5h3a1.5 1.5 0 0 1 1.5 1.5V5"
    stroke="currentColor" stroke-width="1.5" stroke-linecap="round" stroke-linejoin="round"/>

  <!-- Bin lines -->
  <line x1="10" y1="11" x2="10" y2="17" stroke="currentColor" stroke-width="1.5" stroke-linecap="round"/>
  <line x1="14" y1="11" x2="14" y2="17" stroke="currentColor" stroke-width="1.5" stroke-linecap="round"/>
</svg>
